Coordinates
version=1
nRows=12
nColumns=34
inDegrees=no

Units are S.I. units (second, meters, Newtons, ...)
If the header above contains a line with 'inDegrees', this indicates whether rotational values are in degrees (yes) or radians (no).

endheader
time	pelvis_tilt	pelvis_list	pelvis_rotation	pelvis_tx	pelvis_ty	pelvis_tz	hip_flexion_r	hip_adduction_r	hip_rotation_r	knee_angle_r	ankle_angle_r	subtalar_angle_r	mtp_angle_r	hip_flexion_l	hip_adduction_l	hip_rotation_l	knee_angle_l	ankle_angle_l	subtalar_angle_l	mtp_angle_l	lumbar_extension	lumbar_bending	lumbar_rotation	arm_flex_r	arm_add_r	arm_rot_r	elbow_flex_r	pro_sup_r	arm_flex_l	arm_add_l	arm_rot_l	elbow_flex_l	pro_sup_l
0	-0.070944	0.0103639	0.0128604	-0.145685	0.960245	-0.606047	0.0550635	-0.162145	-0.109423	0.0983348	0.220499	0.166364	-0.00241763	0.0444926	-0.130327	-0.076237	0.0525474	0.187256	0.152119	-0.00241763	-0.0406853	-0.0187061	-0.0799848	0.0248612	-0.0772025	-0.164176	0.55233	2.09	0.00082637	-0.116367	-0.00128461	0.544244	2.09
0.01	-0.0711925	0.0105494	0.0127306	-0.145652	0.960196	-0.606042	0.055459	-0.162407	-0.109909	0.0987171	0.220822	0.167336	-0.00241763	0.0447752	-0.13006	-0.076564	0.0527396	0.187839	0.151832	-0.00241763	-0.0401604	-0.019069	-0.079845	0.0250198	-0.0775342	-0.16293	0.551648	2.09	0.00055228	-0.11616	-0.00154737	0.544238	2.09
0.02	-0.0711719	0.0104453	0.0127758	-0.14561	0.960179	-0.606063	0.0554421	-0.162327	-0.110202	0.0988456	0.220843	0.167576	-0.00241763	0.0447807	-0.13006	-0.0767574	0.0529223	0.188698	0.151254	-0.00241763	-0.0399544	-0.0190511	-0.0798117	0.0251417	-0.0778222	-0.162261	0.551135	2.09	0.000286586	-0.116028	-0.00148989	0.544302	2.09
0.03	-0.0709054	0.0103172	0.0127412	-0.145582	0.960188	-0.606087	0.0551423	-0.162181	-0.110046	0.0988141	0.220731	0.167222	-0.00241763	0.0445223	-0.13013	-0.0771635	0.0531055	0.189155	0.152287	-0.00241763	-0.0401129	-0.0189601	-0.0795841	0.0251815	-0.0780211	-0.162269	0.55101	2.09	0.000249666	-0.115913	-0.00117765	0.544071	2.09
0.04	-0.0705978	0.0103676	0.0124401	-0.145588	0.960202	-0.606086	0.0549386	-0.162202	-0.109443	0.0988765	0.220694	0.16671	-0.00241763	0.0442043	-0.130112	-0.0778553	0.0532598	0.188925	0.155253	-0.00241763	-0.0404239	-0.0190813	-0.0790935	0.0252625	-0.0781689	-0.162455	0.55107	2.09	0.000585915	-0.115539	-0.0013616	0.543224	2.09
0.05	-0.0704442	0.0103275	0.012312	-0.145576	0.960209	-0.606081	0.0548408	-0.162135	-0.109193	0.0989592	0.220697	0.16645	-0.00241763	0.044017	-0.130225	-0.0781875	0.0532905	0.188658	0.157566	-0.00241763	-0.0404845	-0.0191631	-0.0788882	0.0254752	-0.0783354	-0.162309	0.550706	2.09	0.000983633	-0.114921	-0.00205314	0.542015	2.09
0.06	-0.070492	0.0100581	0.0127024	-0.145494	0.960213	-0.606097	0.0546326	-0.161847	-0.109848	0.0988193	0.220689	0.166635	-0.00241763	0.0439801	-0.130553	-0.0778667	0.0531304	0.188687	0.157533	-0.00241763	-0.0400986	-0.0190298	-0.0791877	0.0256668	-0.0785329	-0.161816	0.549809	2.09	0.00121928	-0.114421	-0.00237584	0.540661	2.09
0.07	-0.0706105	0.00982945	0.0131261	-0.145398	0.960211	-0.606117	0.0544048	-0.161598	-0.110444	0.098553	0.220615	0.166739	-0.00241763	0.0439814	-0.130791	-0.0775751	0.0529205	0.18889	0.156197	-0.00241763	-0.0395895	-0.0189076	-0.0793932	0.0257983	-0.0788136	-0.160977	0.548931	2.09	0.00165354	-0.114197	-0.00189728	0.538933	2.09
0.08	-0.0706517	0.00983259	0.0131417	-0.145384	0.960197	-0.60613	0.0543778	-0.161596	-0.110114	0.0984762	0.220466	0.166415	-0.00241763	0.0439731	-0.130726	-0.0776535	0.0528893	0.189248	0.155094	-0.00241763	-0.0393609	-0.0189863	-0.0791059	0.0261132	-0.0793718	-0.1592	0.548304	2.09	0.00249519	-0.114489	0.000475699	0.537093	2.09
0.09	-0.0704821	0.00994302	0.0129681	-0.14544	0.96019	-0.606148	0.0544295	-0.161757	-0.109544	0.0987192	0.220398	0.166114	-0.00241763	0.0437987	-0.130532	-0.0775598	0.0529008	0.189471	0.153967	-0.00241763	-0.0395369	-0.0191668	-0.0785395	0.0266951	-0.0804257	-0.155577	0.547797	2.09	0.00353099	-0.115633	0.00605931	0.535806	2.09
0.1	-0.0700828	0.00995359	0.0127396	-0.145495	0.960218	-0.606166	0.0543621	-0.16183	-0.109278	0.099119	0.220425	0.165758	-0.00241763	0.0433342	-0.130505	-0.0774586	0.0527879	0.189382	0.152754	-0.00241763	-0.0399371	-0.019217	-0.0778911	0.0274294	-0.081988	-0.149688	0.547446	2.09	0.00500287	-0.116908	0.0123169	0.534386	2.09
0.11	-0.0698906	0.00974716	0.012634	-0.145535	0.960249	-0.606189	0.0544431	-0.161622	-0.109076	0.0994301	0.220334	0.164977	-0.00241763	0.0433444	-0.130732	-0.0779494	0.0531169	0.189585	0.153511	-0.00241763	-0.0399907	-0.0189829	-0.0775378	0.0284849	-0.0838644	-0.141849	0.546966	2.09	0.00752212	-0.117092	0.0151212	0.531238	2.09
